<?xml version="1.0" encoding="UTF-8"?>
<svg version="1.1" viewBox="0 0 2048 2048" width="536" height="536" xmlns="http://www.w3.org/2000/svg">
<path transform="translate(0)" d="m0 0h2048v2048h-2048z" fill="#FDFDFD"/>
<path transform="translate(1045,923)" d="m0 0h2l2 9 8 9 6 10 1 3 11 3 40 12 15 6 13 7 1-7 2-4 13-2 50-1 78-1 61 2 14 2 8 3 4 5v9l-3 18-6 27-9 44-2 9 29-2 7-1h9l7-1 5 1 26-1h18l7 3 2 4 1 11 6 9 12 13 9 11 16 16 3 5-2 4-21 8v16l-2 18-5 6-7 2h-5l1 7 1 63v13l1 15v41l1 122v200l16 1 71 9 50 7 48 8 37 7 45 10 42 11 29 9 32 12 26 13 12 8 11 9 9 12 3 9v12l-6 12-9 10-15 11-27 14-25 10-37 12-21 6-33 8-47 10-50 9-45 7-60 8-62 7-77 7-81 6-71 4-71 3-83 2-73 1h-62l-111-2-87-3-93-5-84-6-77-7-70-8-66-9-49-8-52-10-48-11-43-12-35-12-25-11-17-9-13-9-7-6-8-11-4-9v-13l4-10 9-11 16-12 18-10 22-10 38-13 28-8 36-9 27-6 52-10 69-11 45-6 51-6 70-7 28-2-1-6-1-46-1-5v-56l1-16v-18l-2-8 1-8-1-4v-7l1-5v-11l-1-3 1-7-1-7 1-5-1-4v-20l-1-34-1-19-1-2 1-2v-59l-1-2v-32l1-7v-18l1-47h-14l-2-4-1-41 1-4 5-1h64l3-2h38l9 1h12l7-1h11l1-1h5l4 1 7-2 4-5 2-6-1-9-3-5-3-2-9 1-13 1-1-1h-27l-24-1h-35l-4-1-20 1 4 5 2 6-1 8-4 7-4 4-4-1 2-4 4-6 1-3v-7l-5-10-6-3-1-4 3-2 8-2 1-5v-17l-4-8-9-1-2-2 1-5 15-4h110l6-1 2 1h6l3-2 8 7 5 6 5 5 4 9v13l-5 7 1 6 5 10 1 6-3 13-2 3 29 1 3 1h12l-3-4-2-17 15-28 7-10 10-10 9-11 13-13 1-3-9-13-9-17 1-6 2-3 4 1 9 10 10 18h2l14-15 28-28 11-9 14-13 13-10 8-5 13-4 19-6 10-4 10-9 8-5 16-6 14-3h18l13 3v-9z" fill="#FDD305"/>
<path transform="translate(1045,923)" d="m0 0h2l2 9 8 9 6 10 1 3 11 3 40 12 15 6 13 7 1-7 2-4 13-2 50-1 78-1 61 2 14 2 8 3 4 5v9l-3 18-6 27-9 44-2 9 29-2 7-1h9l7-1 5 1 26-1h18l7 3 2 4 1 11 6 9 12 13 9 11 16 16 3 5-2 4-21 8v16l-2 18-5 6-7 2h-5l1 7 1 63v13l1 15v41l1 122v159l1 41 1 16 1 48-1 3-1 44-1 26-1 12-2 2h-28l-7-1-3-7-1-48-3-55-1-1-1-34-1-19-1-5-2-30-1-5 1-6-1-6-1-25-1-8v-18l-1-4v-18l-2-20-2-38-1-31-1-8-1-2 1-2v-11l-2-11 1-1-2-29-2-40-2-34-1-3v-24l-1-16h-62l-17-1h-11l8 16 2 6 1 9 1 4-1 5v12l-3 9-3 12-4 8-9 14-12 12-7 6-8 7-8 8-20 13-13 8-16 8-26 12-8 3-12 2-6 2 1 13-1 5 1 7-1 16-4 16-6 2 2 29v55l1 19 1 2-1 2v31l1 37 1 27v31l1 13-1 65-4 6-3 3-3 1h-11l-8-3-2-4-2-28-3-46-1-5-1-32-1-3-1-24v-22l1-3-2-30-1-9v-8l-1-5 1-7-1-11v-8l-1-1v-9l-1-5v-8l-2-5 1-5v-9l-1-3v-21h-20l-14 1-7 1-9-1-18 1h-22l-3 1-33-1h-11l-17-1-2-1-38-1-1 24v17l-1 40-1 18-3 83-1 36-1 26-1 16v13l-1 15v10l-2 15-2 4-5 2h-13l-9-4-2-6-1-82v-227l-1-9-3-2-3-13v-31l2-8 7-6 2-1-1-5-6-2-24-10-30-13-16-8-19-11-12-8-8-6-10-6-8-9-8-6-9-12-5-5-8-16-2-7v-19l5-17 9-13 8-8 14-7 16-6h24l28 3 17 4 8 3 8 2 14 5-2-34-1-4v-10l-3-36v-4h-14l-5-1h-86l-4-2h-17l-4 1-3-1h-16l-5-2-2 2-29 1-11-1-8 1-4-1h-28l-3 2-7-1-4 1h-19l-34-2v17l1 13h12l22 1h24l23-1h21l3-1 9 1 6 1 4-1h22l2-1h9l3-1h13l8 1h14l4-2h8l6-1 5 2 6-1 1 1h8l5 1 3-2 9 1 13 1 3 2 5-1h8l5 4v5l-2 2-7 2h-13l-4-1h-17l-5-1h-6l-5-2-1 1h-23l-6-1-2 2-16 1-5-1h-18l-2 1-16 1-15-1-3 1-2-1-16 1h-10l-11-1 1 43 6-1h12l6-1h22l5-1 5 1h7l5-2 5 3 5-2h7l5 5-1 4-7 4-8-1-4-1-3 2h-12l-3-1h-15l-6-1-5 1h-8l-2-1-16-2 1 141-2 34-1 16v6l-1 1v49l-1 23-1 55v17l-1 28v25l1 9-1 30v63l-2 50-2 14-4 5-6 2-31-1-9-3-4-5-1-5v-25l-1-5-1-23-1-55-1-7v-29l1-2-1-52-1-5v-56l1-16v-18l-2-8 1-8-1-4v-7l1-5v-11l-1-3 1-7-1-7 1-5-1-4v-20l-1-34-1-19-1-2 1-2v-59l-1-2v-32l1-7v-18l1-47h-14l-2-4-1-41 1-4 5-1h64l3-2h38l9 1h12l7-1h11l1-1h5l4 1 7-2 4-5 2-6-1-9-3-5-3-2-9 1-13 1-1-1h-27l-24-1h-35l-4-1-20 1 4 5 2 6-1 8-4 7-4 4-4-1 2-4 4-6 1-3v-7l-5-10-6-3-1-4 3-2 8-2 1-5v-17l-4-8-9-1-2-2 1-5 15-4h110l6-1 2 1h6l3-2 8 7 5 6 5 5 4 9v13l-5 7 1 6 5 10 1 6-3 13-2 3 29 1 3 1h12l-3-4-2-17 15-28 7-10 10-10 9-11 13-13 1-3-9-13-9-17 1-6 2-3 4 1 9 10 10 18h2l14-15 28-28 11-9 14-13 13-10 8-5 13-4 19-6 10-4 10-9 8-5 16-6 14-3h18l13 3v-9z" fill="#030203"/>
<path transform="translate(708,1159)" d="m0 0 5 2h16l6 1 1-1h19l4 2h87l2 1h12l2 1 1 4 3 36v12l1 2 1 22v12l-9-2-7-3-12-3-15-4-21-3-11-1h-24l-25 10-8 6-8 9-5 8-5 17v19l3 10 8 15 5 5 10 12 8 6 6 7 14 8 7 6 15 9 14 8 16 8 30 13 22 9 6 3 2 5-8 6-2 3-1 6v31l3 13 3 2 1 11v144l-8 1-72 2-77 3-51 3-24 1h-13l-1-1-1-7v-25l1-28v-27l1-45 1-29v-43l1-1v-13l2-24 1-23v-137l16 1 2 1h8l8-1 3 1h17l1 1h12l3-2 4 1 8 1 7-4 1-3-4-2-1-2h-7l-6 2-5-3-4 2h-7l-8-1-5 1h-23l-5 1h-15l-1-5v-38h27l10-1 3 1 7-1 14 1 12-1 2-1h21l2 1 16-1 2-2 13 1h16l3-1 3 2h9l4 1h15l10 1h7l8-3v-5l-4-3h-8l-5 1-3-2-17-1-5-1-3 2-7-1h-6l-5-1-4 1-5-2-7 1h-5l-4 2h-14l-8-1h-13l-5 1h-7l-3 1h-21l-6 1-4-1-10-1-2 1h-26l-25 1h-19l-21-1h-11l-1-1-1-13v-18l35 2h19l5-1 6 1 3-2h28l9 1 9-1 9 1 25-1z" fill="#FDFDFD"/>
<path transform="translate(1324,1258)" d="m0 0 23 1h56l1 1 1 24v18l1 1 2 34 3 54 1 15-1 4 2 8v11l-1 3 1 1 1 14 2 50 2 26 1 14v11l1 4v21l1 10 1 20 1 10-1 5 1 2 2 30 1 5v8l-1 1-23-1-91-7-75-4-52-2-17-1-5-1-1-23v-24l1-3-1-1-1-27v-49l-1-14v-13l6-2 3-16 1-21-1-3 1-9-1-8 10-4 9-1 15-6 28-13 12-7 19-12 11-8 12-12 6-4 6-7 8-7 7-11 5-9 3-8 3-14 1-1v-12l1-7-1-2-2-13-8-16v-2z" fill="#FDFDFD"/>
<path transform="translate(1226,1163)" d="m0 0h32l7 1h14l19 2h16l5 1h10l20-1h32l13 1 3 1 28-1h15l31 1 3 9 1 18-3 1-27 1-11-1-3-1-5 1-6-2-4 2-9-1h-25l-9-1h-16l-16 1-5 2-5-1-1-1-1 2h-22l-22-1h-11l-10-1-5-1-4 1-3-2-12 1-11-1-5 1h-16l-10 2-7 3-1 4h63l4 2 23 1 3-1 2 1h10l1 1h49l18-1 5-1 15 1 7-1 22 2 12-1 7 1 29 1 1 1v86l1 8 1 22-1 8 1 1v14l-1 5v42l-1 18 1 8v42l1 4v25l-1 43v59l-1 22-1 5h2l1 21v62l1 23-1 25v55l-4 1h-12l-6 1-1-3 4-7v-13l-4-50v-12l-1-8-1-29-3-30v-13l-1-10-2-40-1-9-1-26-1-1v-18l-1-7-2-43-3-46-4-57-1-19-1-5v-18l-1-7-1-17-1-29-2-19-1-31-3-23-3-1-2 1-1 11 1 21-4 1-43-1-1 1-45 1-1 3-10-11-10-4-8-4-8-2-16 1-25 3-22 5-7 4-21 5-2 1h-6l-2-7v-21l2-11 2-22v-27l1-2h16l3 1h16l1-1z" fill="#FDFDFD"/>
<path transform="translate(899,1090)" d="m0 0h12l35 3 41 1 27 1 10 1 1-1h31l7 1 8-1 28-2h12l2-2h13l7-1 1 1 17 1 6 3 3 4 3 11 1 1v27l-1 3 1 1v56l-2 8-8 8-16 4-7 2-18 2-20 2-25 2h-11l-3-2-2 3h-11l-4-1-7 2h-14l-4-1-7 1-12-1-3 2-7-1-1-1h-6l-4 2-5-3-29-1-42-5-15-3-1-1-2-16-1-15v-18l2-6h-2v-9l-1-3v-18l-1-11 2-16 3-5 7-5z" fill="#FDFDFD"/>
<path transform="translate(923,1499)" d="m0 0 38 1 2 1 20 1h15l28 1 1-1h26l20-1 6 1 4-1 14-1h20l1 1v22l1 2v9l-1 5 2 5v9l1 5v8l1 1v10l1 13-1 6 1 2v9l2 22 1 18-2 1-55-1-151-1v-24l1-28 1-16 1-37v-22l1-19z" fill="#FCFCFC"/>
<path transform="translate(588,1203)" d="m0 0 13 1 5 2 17-1 3-1h7l1 4-1 113v25l-2 61-3 49v21l-1 32-1 2v40l-1 31-1 34v42l-1 92v23l-2 36-8 1-27-2-1-12v-39l-1-3v-27l-2-43v-36l-1-4 1-16-1-9 1-6-1-32 1-7-1-7 1-8-1-54-1-25v-20l1-4-1-10-1-25v-22l-1-2-1-26v-20l-1-32-1-4v-29l1-17v-65z" fill="#FDFDFD"/>
<path transform="translate(1151,978)" d="m0 0h34l65 1h50l8 2 47 2 6 2 1 4h2l-1 11-11 50-5 26-2 11-5 1-24 2 2 5-1 11-4 10-10 13-8 9-14 11-6 4h-6l-1-3v-7l2-7-4-16-3-10-7-12-13-16-20-25-14-15-9-11-18-18-14-11-18-14-1-4z" fill="#FDFDFD"/>
<path transform="translate(1017,121)" d="m0 0 4 1 1 45v70l1 86 1 18 1 67 15 9 12 8 13 9 15 9 12 8 14 9 12 11 9 7 1 3 5 2 12 7 2 3 1 7-1 3-3 1h-22l-5 2-16-2-6 1h-14l-6-2-2 4-3-2h-13l-8 1-1-1-23 1h-54l-14 1-7-1-6 1h-8l-8-1-8 1-11-1h-7l-2-4-1-9 6-7 11-7 10-8 7-4h2l2-5 15-10 16-12 11-6 13-10 13-9 8-5 2-1v-273l1-14z" fill="#030203"/>
<path transform="translate(882,1438)" d="m0 0 4 2 7 2h23l10 2h15l13-1 28 1 14 1h20l19-2 9 1 8-1h19l11-1h62l15-4 1 3v13l-1 18-2 9-3 3-9 1-20 1-5 1-24 1-5 1-12 1-5-1-8 2h-8l-8-1-11 2-6-1-5 1-9-1-11 1-7-1-5 1-9 1-2-1h-9l-5-2-7 1-12 1-5-2-30-1-23-2-9-1-2-3-2-28v-16z" fill="#FDFDFD"/>
<path transform="translate(1232,1258)" d="m0 0 2 1v9h27l1-9 2 1v7h24v2l-5 1-19 1v24l24-1 1-23h2v24h15v2l-15 1v24h20v3l-46 3v28h15v3l-15 1-1 4h-2l-1-3-26 1v22l-3 1-1-4v-18l-24 1 1 30h15v2l-13 1-4 4-1-3h-24l-18 1v-2l3-1 15-1-1-23v-6h-20l1-2 19-1v-30l1-3-16 1 2-2 13-1v-19l1-11h-10l1-2 8-1 1-13h2l1 13h19v-23l-3-3 1-1h31z" fill="#FDFDFD"/>
<path transform="translate(1064,979)" d="m0 0h23v2l-24 1v26h34v-21h1l1 6v15l10 1-3 2h-7v27l18 1-1 2h-16v17l-2 3-1-19-22 1h-12l-1 30h11l-1 2-85 1h-29l-2-2 26-1h24v-29l-23 2v15l-1 10h-1v-26h-28l1 12v12h-1l-2-16v-7l-14-1v-2h14l-1-26 1-5h-20v-2l19-1 1-12 2 2v11h28v-18l2-3v22h23l1-25-3 1-24 1h-30v-1l55-3 4-4 1 3 14-2z" fill="#FDFDFD"/>
<path transform="translate(1440,1094)" d="m0 0h12l6 10 9 17 8 8 9 11 7 8 5 5-13 4h-39l-9-1h-32l-6 1-27-1-5-1h-14l-5-8-5-5-5-10-7-20-4-8-1-6 85-3z" fill="#FDFDFD"/>
<path transform="translate(1109,1340)" d="m0 0h3v36l-2 28-7 2-26 2-1 6-2-2v-4h-25v8h-1l-1-8h-29l-1 16h-1v-16h-18l-7-1v8l-1 6h-1l-2-14-22-3v18h-1l-1-14-1-5-20-2-4-1v20h-2v-20h-10l-1-2h11v-29h-12v-2h12v-22h2v22l25-1 1-9h1v10h23l1-8h2v9l26 1-1-9h2v10l30-1 15 1h11l2-8 2 3v6l19 1 11 1z" fill="#FDFDFD"/>
<path transform="translate(755,1264)" d="m0 0 17 1 15 1 49 1 5 2 1 1 1 19 5 1v1h-5v20l13 1v2h-13v31l10 1 4 2-14-1v18l-2 3-1-21h-12l-15-1-1 12-2 1-1-13-33-2v-2l4-1-1-4v-25h-14l-7-1v13l-2-1v-11l-9-1 3-2h6l-1-19-17-1-2-2 19-1z" fill="#FDFDFD"/>
<path transform="translate(887,1493)" d="m0 0 12 3 15 2 2 3-1 10v11l-1 14-1 7v18l-1 4 1 1v8l-2 5 1 4v9l-1 9v27l-1 10v8l-1 3-3 73-2 27 1 8-1 9v13l-1 13-1 16-2 1h-7l-2-1-1-4v-48l-1-50-1-72v-102l-2-38z" fill="#FDFDFD"/>
<path transform="translate(622,1657)" d="m0 0h1v116l-2 36-8 1-27-2-1-12v-39l-1-3v-27l-2-43v-24l7-1z" fill="#FDD304"/>
<path transform="translate(1143,1496)" d="m0 0h8v74l1 36v71l1 16 1 8v103l-7 1-4-2-3-62-3-52-1-29-2-34-2-44v-11l-2-21v-10l-3-37-1-5 2-1z" fill="#FDFDFD"/>
<path transform="translate(604,1120)" d="m0 0 10 1h31l27 1h22l5 1 13-2 7 1 4 4 2 6-1 10-4 6-4 3-8 1-1-1h-5l-5 1h-12l-3 1h-17l-9-1h-32l-4 2h-22l-17-1 6-9 2-6-1-9-4-6-1-2z" fill="#FDFDFD"/>
<path transform="translate(585,1078)" d="m0 0 49 2h31l1-1h40l9 2 6 12 1 4v9l-5 5-6 1h-28l-63-1-12 1h-17l-1-3 1-5v-11l-2-9z" fill="#FDFDFD"/>
<path transform="translate(909,1262)" d="m0 0 10 2 13 2 42 3h101l3 1 4-2 24-2 25-4 1 1v16l-15 3-20 3h-14l-7 1-3-1-9 1h-7l-1 1-32 1h-29l-50-2-34-3-1-2z" fill="#FDFDFD"/>
<path transform="translate(883,1226)" d="m0 0 15 3 3 3v23l3 76v33l1 8 2 51 1 7-1 3h-17l-4-1v-2l3-1v-15l-1-31v-26l-1-5-3-60-2-47-1-11 1-7z" fill="#FDFDFD"/>
<path transform="translate(1437,1665)" d="m0 0 26 2v37l1 23-1 25v55l-4 1h-12l-6 1-1-3 4-7v-13l-4-50v-12l-1-8-1-29-1-8z" fill="#F0C106"/>
<path transform="translate(1153,1227)" d="m0 0 5 1-1 71-1 3v11l-1 17-1 67 1 31h-12l-6 1-1-2 1-23 2-25 2-61 1-37 1-7v-19l1-26z" fill="#FDFDFD"/>
<path transform="translate(622,1657)" d="m0 0h1v116l-2 36-8 1-27-2-1-12v-39l-1-3v-27l-2-45 3-1 1 12h-2l2 5 3 3 2 7-1 8-4 4-1 2 6-1 3 7v9l2 5 1 14 3 1v-6l3-1-1-4-3-1h2l1-3 4 2 5 5 2 6 2 2v10h2l1-9 3-7h-3l-1-7h2l-2-7-3-1-1-4 2-1 3 1 1-9v-11l1-12v-18l1-9v-15z" fill="#F0C109"/>
<path transform="translate(889,1646)" d="m0 0h20l-3 76-2 27 1 8-1 9v13l-1 13-1 16-2 1h-7l-2-1-1-4v-48l-1-50z" fill="#F0C20B"/>
<path transform="translate(1136,1647)" d="m0 0h12l3 1 1 3v26l1 16 1 8v103l-7 1-4-2-3-62-3-52-1-29z" fill="#F0C20E"/>
<path transform="translate(1009,767)" d="m0 0h10l7 2 5 4v3h-21l-10 3-16 8-13 14-9 14-6 13-5 25-2 20v20l5 25 5 19-1 4-5-3-6-10-5-19-3-16v-33l2-14 7-26 8-16 4-6 8-10 11-9 10-7 11-4z" fill="#030203"/>
<path transform="translate(1050,772)" d="m0 0h9l13 4 10 9 9 14 5 12 4 21 3 23 2 29v52l1 5-7-1-3-4-1-6-2-57-2-22-6-31-6-16-6-10-8-8-10-5-6-1-2-1v-5z" fill="#030203"/>
<path transform="translate(1166,987)" d="m0 0h29l4 1 107 1 38 1 8 1v11l-6 31-8 38-2 9h-5l-1-5 11-52 6-26h-22l-109-3-17-1h-32l-1-1z" fill="#030203"/>
<path transform="translate(1161,1034)" d="m0 0h1v17h18l15 2 11 4 3 3-6-1-13-4 1 23 20 2 2-1 1 5 6 3-4 1h-2v24h8l1 2-9 1v7h10l-2 2-7 1-3 2-1-13h-19l-2-2-1-6-1-25h-28l-1-3 28-1v-22l-25-1 1 5v14l-2 1-1-19-10-2-1-2h11v-10z" fill="#FDFDFD"/>
<path transform="translate(917,1306)" d="m0 0 6 2 21 11 23 10 15 5 14 2 23 1h14l19-2 19-5 24-10 14-4 7-1 1 4-8 4-19 7-17 7-18 4-20 3h-19l-21-1-25-6-19-8-16-8-12-8-5-4z" fill="#FDFDFD"/>
<path transform="translate(1162,1648)" d="m0 0h5v3l1 8v3h-2v3l2 1h-2l2 7-1 6 3 6 2 11v15l-1 12 1 7 1 12v8l1 4-2 16-2 10-3 4-1 16-1 5h-1v-70l-1-8v-38l-1-20z" fill="#F0C20E"/>
<path transform="translate(1095,1010)" d="m0 0 2 1v27l-1 1h-33l-1-28z" fill="#030203"/>
<path transform="translate(1019,1373)" d="m0 0h27l1 1v30h-29v-30z" fill="#030203"/>
<path transform="translate(1078,1374)" d="m0 0h11l19 1v28h-31v-13z" fill="#030203"/>
<path transform="translate(1114,558)" d="m0 0 4 1 5 5 9 14 11 17 12 15 11 18 12 17 3 3-1 5-3 2h-3l-7-11-9-13-24-34-9-15-10-18z" fill="#030203"/>
<path transform="translate(812,1314)" d="m0 0h28v30h-17l-11-1z" fill="#030203"/>
<path transform="translate(952,1012)" d="m0 0h27l2 2-1 28-27 1z" fill="#030203"/>
<path transform="translate(991,1371)" d="m0 0 25 1 1 7-1 25h-15l-10-1z" fill="#030203"/>
<path transform="translate(1048,1374)" d="m0 0h27l1 1-1 28-2 1h-24z" fill="#030203"/>
<path transform="translate(782,1313)" d="m0 0h22l5 1v28h-24l-4-1z" fill="#030203"/>
<path transform="translate(1210,1329)" d="m0 0h22v29l-1 1-24 2-1-18v-13z" fill="#030203"/>
<path transform="translate(1052,1043)" d="m0 0h8l1 3v27h-26l-1-1 1-28z" fill="#030203"/>
<path transform="translate(938,1369)" d="m0 0h25l1 2-1 29-17-1-8-1z" fill="#030203"/>
<path transform="translate(1247,1328)" d="m0 0h14l1 28-1 1-10 1h-15l-1-11v-18z" fill="#030203"/>
<path transform="translate(965,1369)" d="m0 0 19 1 5 1v19l-1 13-15-1-8-1z" fill="#030203"/>
<path transform="translate(1207,1298)" d="m0 0h24l1 1v27h-26v-27z" fill="#030203"/>
<path transform="translate(1009,1044)" d="m0 0h23l1 1-1 28h-24v-28z" fill="#030203"/>
<path transform="translate(1236,1298)" d="m0 0h25v26l-2 1h-24v-26z" fill="#030203"/>
<path transform="translate(1236,1409)" d="m0 0 6 1 1 4-3 9-7 10-7 7-11 7h-13l-23-2-3-1-1-5 1-1 38-1 9-8 7-11z" fill="#030203"/>
<path transform="translate(1042,1011)" d="m0 0h18l1 6-1 23-23 1-1-1v-28z" fill="#030203"/>
<path transform="translate(1189,1329)" d="m0 0h14l1 1v31l-3 1h-18v-32z" fill="#030203"/>
<path transform="translate(988,513)" d="m0 0h4l7 8 5 4 9 3 17 2 8-1 7-3 11-8 5-4h5l2 3-6 10-8 6-12 5h-20l-16-4-11-7-6-9z" fill="#030203"/>
<path transform="translate(918,1646)" d="m0 0h4l-2 26 1 8-1 2v10l2 4-1 8 1 22-3 12 2 17-1 11v7l-3 8-1 11-3 17h-2l1-11v-16l1-9v-16l1-19 1-20 2-60z" fill="#F0C312"/>
<path transform="translate(1031,1012)" d="m0 0h2v28l-1 1h-23v-27z" fill="#030203"/>
<path transform="translate(983,1013)" d="m0 0 23 1 1 3-1 24-1 1h-22l-1-1v-27z" fill="#030203"/>
<path transform="translate(1049,982)" d="m0 0h12v19l-1 7-10 1h-14l-1-25 1-1z" fill="#030203"/>
<path transform="translate(1196,1364)" d="m0 0h8l1 18v12l-5 1h-17v-29l2-1z" fill="#030203"/>
<path transform="translate(1024,983)" d="m0 0h10v18l-1 8-1 1-9 1h-13l-1-1 1-25 3-1z" fill="#030203"/>
<path transform="translate(1425,1663)" d="m0 0h1l1 15 1 30 1 1 3 55v45h-1l-1-14h-3l-1-23-2-4v-6l1-4-1-2v-8l2-4-2-1h2l-2-5-1-6 1-4v-11l-1-7v-24l1-21z" fill="#F0C30F"/>
<path transform="translate(1235,1271)" d="m0 0h26v24h-26z" fill="#030203"/>
<path transform="translate(1206,1271)" d="m0 0h25l1 1v22l-1 1h-25l-1-23z" fill="#030203"/>
<path transform="translate(1448,1104)" d="m0 0h1l-1 7-37 1-29 2-43-1-5-2 1-2 56-2 16-2z" fill="#030203"/>
<path transform="translate(946,554)" d="m0 0h4l-2 5-6 10-10 13-12 17-10 13-12 17-7 7-6 7h-3v-7l7-8 9-10 14-20 7-8 6-9 11-13z" fill="#030203"/>
<path transform="translate(1265,1298)" d="m0 0h23l1 1-1 23-1 1-22 1-1-1v-24z" fill="#030203"/>
<path transform="translate(1183,1298)" d="m0 0h20l1 1v25l-1 3h-20z" fill="#030203"/>
<path transform="translate(1191,1081)" d="m0 0h8l11 3 1 1v26l-1 1h-12l-6-1-1-2z" fill="#030203"/>
<path transform="translate(1007,985)" d="m0 0h1l-1 23-1 3h-23v-23l21-2z" fill="#030203"/>
<path transform="translate(812,1290)" d="m0 0 28 1v20h-24l-4-1-1-7v-12z" fill="#030203"/>
<path transform="translate(782,1290)" d="m0 0h27v20l-1 1-26-1z" fill="#030203"/>
<path transform="translate(946,1292)" d="m0 0 2 3-1 15 24 1 1-16 2-1v18l22 1 8 1v-19h2v19h25l1-16h2l1 17 28-2v-14l2 3v7l1 3 17-2-3 2-14 3-2 6h-1v-5l-5 1h-23l-1 7-2-2v-5h-25v8l-2-2v-6l-29-2-2-1v9h-2v-9l-27-2v-15z" fill="#FDFDFD"/>
<path transform="translate(811,1270)" d="m0 0h29v18l-3 1-22-1-4-1z" fill="#030203"/>
<path transform="translate(1123,1647)" d="m0 0 2 3v22l1 22 1 3 1 32 1 5 4 64 1 10 1 4-3-1v-3h-2l-2-4v-5l1-4-1-25-1-8-3-4 1-15-1-10v-35h-2l-1-2v-28l1-7v-8z" fill="#F0C20E"/>
<path transform="translate(849,1053)" d="m0 0h1v14l15-2h15l-4 2-26 2v24l19 1v1l-7 1h-13v43l-1 6h-1l-1-5v-44h-22l1 24-1 16h-1l-1-14v-25l-13-1 4-2 9-1 1-16 2-2v13l-1 6 22-1 1-22-11 2-9 1 2-2 15-4h4z" fill="#FDFDFD"/>
<path transform="translate(568,1661)" d="m0 0h4v31l1 7 1 55 1 23 1 5v25l2 7 3 3 8 2 22 1v1h-25l-7-3-3-3v-2l-2-1-3-4v-49l-1-23v-18l1-7-1-11-3-6 1-29-5-1 2-2z" fill="#F0C30E"/>
<path transform="translate(815,1403)" d="m0 0 3 2 2 17 5 7 10 4 15 2 7 3v6l-17-1-13-3-8-6-4-5-3-6v-13l1-6z" fill="#030203"/>
<path transform="translate(782,1270)" d="m0 0h27v17h-27z" fill="#030203"/>
<path transform="translate(1052,830)" d="m0 0 2 1 3 29 6 35 6 22 4 12v5l-4-4-8-20-6-25-3-21-1-11v-22z" fill="#030203"/>
<path transform="translate(758,1267)" d="m0 0h9l11 1 1 1v18h-21z" fill="#030203"/>
<path transform="translate(758,1290)" d="m0 0h21v20l-20-1-1-1z" fill="#030203"/>
<path transform="translate(1317,1126)" d="m0 0h1l4 21 1 9h-20l-11-1 5-5 6-4 5-5 6-10z" fill="#FDFDFD"/>
<path transform="translate(1008,811)" d="m0 0 2 1-2 17-3 20-1 13v17l4 24 1 5h-4l-5-21v-32l3-22 4-20z" fill="#030203"/>
<path transform="translate(1014,917)" d="m0 0h12l6 2v4h-17l-16 3-11 4-5 3-4-1 3-5 12-6 11-3z" fill="#030203"/>
<path transform="translate(1030,824)" d="m0 0h2l2 47 3 22 2 16-3-1-4-14-2-19z" fill="#030203"/>
<path transform="translate(573,1754)" d="m0 0h1l1 23 1 5v25l2 7 3 3 8 2 22 1v1h-25l-7-3-3-3v-2l-2-1-3-4v-37z" fill="#F1C720"/>
<path transform="translate(667,1098)" d="m0 0h11l1 3-17 1-30 1-33-1-1-3z" fill="#030203"/>
<path transform="translate(883,1016)" d="m0 0h2v16h7l-4 2h-3v16l-2 25-2 7h-1l1-22 2-26-12 2-23 3v-2l23-4 12-1z" fill="#FDFDFD"/>
<path transform="translate(982,840)" d="m0 0 2 1-1 15v26l2 16 2 10-4-2-3-9-1-7v-36l2-13z" fill="#030203"/>
<path transform="translate(1027,948)" d="m0 0 16 2 3 3-5 1-7-1h-11l-20 2-17 4h-2l1-3 17-5 11-2z" fill="#FDFDFD"/>
<path transform="translate(635,1656)" d="m0 0h17v1h-16l1 3-1 22v62l-2 3-1-5v-55l1-30z" fill="#F4D353"/>
<path transform="translate(598,1131)" d="m0 0h71l1 2-16 1h-56z" fill="#030203"/>
<path transform="translate(1123,1647)" d="m0 0 2 3v22l1 22 1 7-4-3-2-2v-28l1-7v-8z" fill="#F0C313"/>
<path transform="translate(915,1018)" d="m0 0h2v53h-3v-51z" fill="#FDFDFD"/>
<path transform="translate(1125,1016)" d="m0 0h2l1 2 2 39v10l-3-3-2-20-1-27z" fill="#FDFDFD"/>
<path transform="translate(878,1646)" d="m0 0h1v73l-2-3v-12l-1-7v-28l1-22z" fill="#F1C416"/>
<path transform="translate(603,1140)" d="m0 0h75v2l-16 1h-59z" fill="#030203"/>
<path transform="translate(583,1681)" d="m0 0h2l1 12h-2l2 5 3 3 2 7-1 8-6 6-2-40z" fill="#F0C003"/>
<path transform="translate(600,1090)" d="m0 0h64v2l-7 1h-18l-39-1z" fill="#030203"/>
<path transform="translate(801,1097)" d="m0 0h2v23l8-1h9v2l-6 1h-11v22l-2-1-1-19-1-4 1-1z" fill="#FDFDFD"/>
<path transform="translate(878,1758)" d="m0 0h1l1 8v43l-2-3-1-34v-13z" fill="#F0C003"/>
<path transform="translate(1327,1129)" d="m0 0 3 1 9 17 6 9-7-1-9-20-2-3z" fill="#FDFDFD"/>
<path transform="translate(878,1719)" d="m0 0h1l1 8v39h-1l-2-13v-33z" fill="#F5D969"/>
<path transform="translate(572,1716)" d="m0 0h1v45l-2-2-1-23v-18z" fill="#F0C313"/>
<path transform="translate(1460,1704)" d="m0 0h3l1 23h-1l-1-5-1-2h-2l-2-10 1-5z" fill="#FBD317"/>
<path transform="translate(894,1795)" d="m0 0 4 2v9l3-1 1 3-2 1h-7l-2-1-1-4h2l1-8z" fill="#FBD20D"/>
<path transform="translate(1323,1129)" d="m0 0 2 1 5 15 5 9 2 2h-6l-5-12-3-9z" fill="#FDFDFD"/>
<path transform="translate(634,1708)" d="m0 0h1l1 15v21l-2 3-1-5v-33z" fill="#F2C929"/>
<path transform="translate(1324,1106)" d="m0 0h1l3 18 1 3h-7l1-9v-9z" fill="#FDFDFD"/>
<path transform="translate(582,1661)" d="m0 0 3 1 1 5v10l-3 5h-1z" fill="#F3D14C"/>
<path transform="translate(612,1802)" d="m0 0 5 2v6l-16-2v-1h8v-4z" fill="#FDD617"/>
<path transform="translate(1446,1798)" d="m0 0 2 2v4l2 2h-3v2l-6 1-1-3 4-7z" fill="#FCD72A"/>
<path transform="translate(635,1680)" d="m0 0 1 2v25l-3 2v-22z" fill="#F3D046"/>
<path transform="translate(877,1693)" d="m0 0h1l1 8v18l-2-3v-12l-1-7z" fill="#F0C003"/>
<path transform="translate(1020,1241)" d="m0 0 2 1 1 21-2 1-2-22z" fill="#FDFDFD"/>
<path transform="translate(889,1646)" d="m0 0h20l-1 3-2 2-1-3h-16z" fill="#FCD413"/>
<path transform="translate(1106,1292)" d="m0 0h2l-1 14-2 1v-13z" fill="#FDFDFD"/>
<path transform="translate(583,1681)" d="m0 0h2l1 12h-3l-1-11z" fill="#F0C20B"/>
</svg>
